# xmcd
#
# Track frame offsets:
#	150
#	5837
#	20120
#	30327
#	44440
#	55937
#	69712
#	84702
#	96790
#	111450
#	123952
#	137665
#	151077
#	166315
#	172022
#	189532
#	204247
#	217807
#	232680
#	252430
#	267152
#	278935
#	292127
#
# Disc length: 4061 seconds
#
# Revision: 1
# Processed by: cddbd v1.5.1PL0 Copyright (c) Steve Scherf et al.
# Submitted via: CDex 1.50Beta5
#
DISCID=4c0fdb17
DTITLE=Various Artist - あなたと死にたい私
DYEAR=1900
DGENRE=Pop
TTITLE0=オープニング
TTITLE1=あなたと死にたい私
TTITLE2=ナレーション
TTITLE3=ベッドで煙草を吸わないで
TTITLE4=ナレーション
TTITLE5=いいじゃないの幸せならば
TTITLE6=夜と朝の間に
TTITLE7=ナレーション
TTITLE8=チェリー・ブランディー
TTITLE9=ナレーション
TTITLE10=噂の恋
TTITLE11=私もあなたと泣いていい
TTITLE12=ひとり寝の子守唄
TTITLE13=クロージング
TTITLE14=しおふき小唄
TTITLE15=ほんとの恋
TTITLE16=めまい
TTITLE17=傷つく前にさよならを
TTITLE18=はぐれ節
TTITLE19=牙のバラード
TTITLE20=めまい
TTITLE21=恋の奴隷
TTITLE22=天使になれない
EXTD=
EXTT0=
EXTT1=
EXTT2=
EXTT3=
EXTT4=
EXTT5=
EXTT6=
EXTT7=
EXTT8=
EXTT9=
EXTT10=
EXTT11=
EXTT12=
EXTT13=
EXTT14=
EXTT15=
EXTT16=
EXTT17=
EXTT18=
EXTT19=
EXTT20=
EXTT21=
EXTT22=
PLAYORDER=
